<svg width="637" height="666" viewBox="0 0 637 666" fill="none" xmlns="http://www.w3.org/2000/svg">
<path d="M536.6 117.65C536.6 339.25 455.5 440.45 356.4 515.95C345.7 524.05 330.8 524.05 320.1 515.95C318.6 514.75 317 513.55 315.5 512.35C314 511.15 312.4 509.95 310.9 508.75C309.4 507.55 307.8 506.35 306.3 505.15C305.3 504.35 304.4 503.65 303.4 502.85C302.3 501.95 301.2 501.05 300.1 500.15C298.8 499.05 297.5 497.95 296.2 496.85C292 493.35 288 489.85 283.9 486.25C282.4 484.95 281 483.65 279.5 482.35C278.1 481.05 276.6 479.65 275.2 478.35C273.8 477.05 272.3 475.65 270.9 474.25C269.6 473.05 268.3 471.75 267.1 470.55C265.6 469.05 264 467.55 262.5 465.95C261.2 464.65 259.8 463.25 258.5 461.85C256 459.25 253.5 456.65 251.1 453.95C250.3 453.05 249.5 452.15 248.7 451.25C247.8 450.25 247 449.35 246.1 448.35C244.8 446.85 243.5 445.45 242.2 443.95C241.1 442.65 240 441.45 239 440.15C237.2 437.95 235.4 435.75 233.6 433.55C231.7 431.15 229.8 428.75 227.9 426.25C227.8 426.15 227.7 426.05 227.6 425.95C226.7 424.85 225.9 423.65 225 422.55C224.7 422.05 224.3 421.65 224 421.15C223.4 420.35 222.7 419.45 222.1 418.55C221 417.05 220 415.65 218.9 414.15C218.2 413.15 217.4 412.05 216.7 411.05C216.3 410.55 216 409.95 215.6 409.45C214.5 407.85 213.5 406.35 212.4 404.75C210.2 401.35 208 397.95 205.8 394.45C204.7 392.75 203.7 390.95 202.6 389.25C201.9 388.05 201.2 386.95 200.6 385.75C199.2 383.35 197.8 380.95 196.5 378.55C195.5 376.75 194.5 374.95 193.5 373.05C192.6 371.25 191.7 369.55 190.7 367.75C189.8 366.05 188.9 364.25 188.1 362.45C188.1 362.35 188.1 362.35 188 362.25C187.1 360.45 186.2 358.55 185.4 356.75C185.3 356.65 185.3 356.45 185.2 356.35C184.4 354.65 183.6 352.95 182.8 351.15C182 349.25 181.1 347.35 180.3 345.45C179.5 343.55 178.6 341.65 177.8 339.65C177 337.85 176.3 335.95 175.5 334.05C175.5 333.95 175.4 333.85 175.4 333.75C174.6 331.85 173.9 329.85 173.1 327.85C172.3 325.75 171.5 323.75 170.8 321.65C170.3 320.15 169.7 318.75 169.2 317.25C168.4 314.95 167.6 312.65 166.8 310.35C166.5 309.45 166.2 308.65 166 307.75C165.4 305.95 164.8 304.05 164.2 302.15C163.6 300.25 163 298.25 162.4 296.35C161.8 294.45 161.3 292.45 160.7 290.55C160 287.95 159.2 285.35 158.5 282.75C157.9 280.65 157.4 278.45 156.9 276.25C155.8 271.65 154.7 267.05 153.6 262.35C151.2 251.45 149.1 240.15 147.3 228.45C146.9 225.95 146.5 223.45 146.2 220.95C145.7 217.75 145.3 214.65 144.9 211.35C144.6 208.85 144.3 206.25 144 203.75C144 203.65 144 203.55 144 203.45C143.7 200.55 143.3 197.55 143.1 194.55C142.7 190.85 142.4 187.15 142.1 183.35C142 182.45 141.9 181.55 141.9 180.65C141.7 178.45 141.5 176.15 141.4 173.85C141.1 170.35 140.9 166.85 140.7 163.35C140.6 162.35 140.6 161.35 140.5 160.35C140.3 156.25 140.1 152.05 139.9 147.85C139.2 129.55 139.2 110.35 139.7 90.25C140 84.35 143.9 79.55 149.5 78.25C207.6 63.85 265.2 38.65 322.3 4.35C332 -1.45 344 -1.45 353.7 4.35C410.7 38.55 468.1 63.75 526 78.15C531.7 79.55 535.8 84.45 536 90.35C536.6 99.75 536.6 108.95 536.6 117.65Z" fill="#F9B21E"/>
<path d="M529.9 122.75C529.9 344.35 448.8 445.55 349.8 521.05C339.1 529.15 324.2 529.15 313.5 521.05C210.5 442.65 126.7 336.15 133.3 95.55C133.6 89.65 137.5 84.85 143.1 83.45C201.2 69.05 258.7 43.85 315.9 9.55C325.6 3.75 337.7 3.75 347.3 9.55C404.3 43.75 461.7 68.95 519.6 83.35C525.3 84.75 529.4 89.65 529.6 95.55C529.9 104.85 529.9 114.05 529.9 122.75Z" fill="#F9B21E"/>
<path d="M536.6 117.65C536.6 339.25 455.5 440.45 356.4 515.95C345.7 524.05 330.8 524.05 320.1 515.95C318.6 514.75 317 513.55 315.5 512.35C314 511.15 312.4 509.95 310.9 508.75C309.4 507.55 307.8 506.35 306.3 505.15C305.3 504.35 304.4 503.65 303.4 502.85C302.3 501.95 301.2 501.05 300.1 500.15C298.8 499.05 297.5 497.95 296.2 496.85C292 493.35 288 489.85 283.9 486.25C282.4 484.95 281 483.65 279.5 482.35C278.1 481.05 276.6 479.65 275.2 478.35C273.8 477.05 272.3 475.65 270.9 474.25C269.6 473.05 268.3 471.75 267.1 470.55C265.6 469.05 264 467.55 262.5 465.95C261.2 464.65 259.8 463.25 258.5 461.85C256 459.25 253.5 456.65 251.1 453.95C250.3 453.05 249.5 452.15 248.7 451.25C247.8 450.25 247 449.35 246.1 448.35C244.8 446.85 243.5 445.45 242.2 443.95C241.1 442.65 240 441.45 239 440.15C237.2 437.95 235.4 435.75 233.6 433.55C231.7 431.15 229.8 428.75 227.9 426.25C227.8 426.15 227.7 426.05 227.6 425.95C226.7 424.85 225.9 423.65 225 422.55C224.7 422.05 224.3 421.65 224 421.15C223.4 420.35 222.7 419.45 222.1 418.55C221 417.05 220 415.65 218.9 414.15C218.2 413.15 217.4 412.05 216.7 411.05C216.3 410.55 216 409.95 215.6 409.45C214.5 407.85 213.5 406.35 212.4 404.75C210.2 401.35 208 397.95 205.8 394.45C204.7 392.75 203.7 390.95 202.6 389.25C201.9 388.05 201.2 386.95 200.6 385.75C199.2 383.35 197.8 380.95 196.5 378.55C195.5 376.75 194.5 374.95 193.5 373.05C192.6 371.25 191.7 369.55 190.7 367.75C189.8 366.05 188.9 364.25 188.1 362.45C188.1 362.35 188.1 362.35 188 362.25C187.1 360.45 186.2 358.55 185.4 356.75C185.3 356.65 185.3 356.45 185.2 356.35C184.4 354.65 183.6 352.95 182.8 351.15C182 349.25 181.1 347.35 180.3 345.45C179.5 343.55 178.6 341.65 177.8 339.65C177 337.85 176.3 335.95 175.5 334.05C175.5 333.95 175.4 333.85 175.4 333.75C174.6 331.85 173.9 329.85 173.1 327.85C172.3 325.75 171.5 323.75 170.8 321.65C170.3 320.15 169.7 318.75 169.2 317.25C168.4 314.95 167.6 312.65 166.8 310.35C166.5 309.45 166.2 308.65 166 307.75C165.4 305.95 164.8 304.05 164.2 302.15C163.6 300.25 163 298.25 162.4 296.35C161.8 294.45 161.3 292.45 160.7 290.55C160 287.95 159.2 285.35 158.5 282.75C157.9 280.65 157.4 278.45 156.9 276.25C155.8 271.65 154.7 267.05 153.6 262.35C151.2 251.45 149.1 240.15 147.3 228.45C146.9 225.95 146.5 223.45 146.2 220.95C145.7 217.75 145.3 214.65 144.9 211.35C144.6 208.85 144.3 206.25 144 203.75C144 203.65 144 203.55 144 203.45C143.7 200.55 143.3 197.55 143.1 194.55C142.7 190.85 142.4 187.15 142.1 183.35C142 182.45 141.9 181.55 141.9 180.65C141.7 178.45 141.5 176.15 141.4 173.85C141.1 170.35 140.9 166.85 140.7 163.35C140.6 162.35 140.6 161.35 140.5 160.35C140.3 156.25 140.1 152.05 139.9 147.85C139.2 129.55 139.2 110.35 139.7 90.25C140 84.35 143.9 79.55 149.5 78.25C207.6 63.85 265.2 38.65 322.3 4.35C332 -1.45 344 -1.45 353.7 4.35C410.7 38.55 468.1 63.75 526 78.15C531.7 79.55 535.8 84.45 536 90.35C536.6 99.75 536.6 108.95 536.6 117.65Z" fill="#FFD488"/>
<path d="M370.3 468.25C364.6 472.55 356.5 468.35 356.5 461.25V258.25C356.5 255.35 357 252.55 358.1 249.95L393.8 157.75C394.3 156.55 393.3 155.25 391.9 155.25H360.6C359.7 155.25 359.2 155.25 359 155.95C358.7 156.65 357.6 156.45 357.6 155.65L356.6 56.85C356.6 50.85 363.2 47.05 368.3 50.15L368.4 50.25C415.1 78.25 462.1 98.85 509.5 110.65C514.1 111.85 517.3 115.65 517.5 120.45C522.9 317.15 454.5 404.15 370.3 468.25Z" fill="#F9B21E"/>
<path d="M538.3 349.65L537.2 352.25C538.2 353.05 539 354.25 539.2 355.65C539.3 355.95 539.3 356.25 539.3 356.55C539.3 359.25 537.4 361.55 534.7 362.05L532.7 362.45L530.8 366.75L527.4 374.65L512.2 409.25L498.8 411.15L499 372.65L482.3 359.15C482.3 359.15 435.6 364.25 416 361.05L414.1 373.15C414.1 373.15 409 376.65 406.6 375.35L394 357.95C394 357.95 379.2 359.25 387.1 350.45L359.5 325.05C359.5 325.05 362 315.35 396.3 335.35L394.7 314.95C394.7 314.95 399.6 313.65 402.7 314.45C405.8 315.15 427.4 337.45 427.4 337.45C427.4 337.45 458.3 330.95 459 331.05L443.4 315.75L374.8 273.65C374.5 273.45 374.4 273.05 374.7 272.75C376.2 270.95 381.7 265.35 387.3 267.55C390.9 268.95 430.7 283.95 466.6 297.35L480.5 294.95C483.6 294.45 486.5 296.45 487 299.55C487.1 299.85 487.1 300.15 487.1 300.45C487.1 301.95 486.5 303.45 485.5 304.45C488.3 305.45 491 306.55 493.6 307.45L506.8 305.15C510 304.55 513.1 306.75 513.7 310.05C513.8 310.35 513.8 310.65 513.8 311.05C513.8 312.35 513.4 313.65 512.7 314.65C520.2 317.45 524.8 319.15 524.8 319.15L567.3 310.35C567.3 310.35 584.4 301.55 597.9 308.95C597.9 308.95 626.5 312.75 612.6 326.65C612.6 326.35 594.9 343.05 538.3 349.65Z" fill="#8B244F"/>
<path d="M531.5 369.35C531.5 371.85 529.8 374.05 527.3 374.55L530.7 366.65C531 367.15 531.2 367.75 531.3 368.45C531.5 368.75 531.5 369.05 531.5 369.35Z" fill="#8B244F"/>
<path d="M137.1 243.65C113.6 259.55 70.7001 281.55 71.6001 313.85C70.5001 309.75 70.4001 305.25 71.1001 300.95C76.6001 272.65 112.3 252.95 137.1 243.65Z" fill="#8B244F"/>
<path d="M343.8 304.85C291.7 328.35 184.6 365.45 129.2 351.75L125.7 350.65L122.3 349.35L119 347.75C123.5 349.65 128.2 350.65 133 351.25C143.7 352.65 154.6 352.05 165.3 351.05C178.5 349.75 191.5 347.55 204.5 344.85C251.5 335.05 298.1 319.75 343.8 304.85Z" fill="#8B244F"/>
<path d="M112.5 288.75C95.3999 311.35 62.4999 355.55 78.1999 384.25C97.1999 416.75 167.5 410.55 200.1 406.55C248 400.45 294.9 388.15 341.1 373.85C280.9 397.45 217.4 415.25 152.2 416.15C126 415.75 87.5999 412.35 73.4999 386.85C57.1999 354.65 91.6999 311.75 112.5 288.75Z" fill="#8B244F"/>
<path d="M447.5 400.35C367 430.65 192 478.65 112.4 442.85C101.7 437.85 91.6 429.95 87 418.75C90.6 425.75 96.4 431.25 103 435.35C173.3 476.35 368.5 422.05 447.5 400.35Z" fill="#8B244F"/>
<path d="M240.5 196.45C240 196.45 239.6 196.75 239.4 197.15L232.7 213.05L231.3 216.35L218.9 251.25C218.5 252.25 217.1 252.35 216.7 251.25L179 154.35C178.8 153.75 178.2 153.35 177.5 153.35H158C156.9 153.35 156.1 154.55 156.5 155.55L214.3 299.55C214.5 300.05 214.9 300.25 215.4 300.25H219.5C220 300.25 220.4 299.95 220.6 299.45L260.6 197.85C260.9 197.05 260.3 196.25 259.5 196.25H240.5V196.45Z" fill="#EF990F"/>
<path d="M363.8 160.65L332.1 246.05C331.7 247.15 330.2 247.05 329.8 245.95L302 158.15C301.9 157.75 301.5 157.45 301 157.45H296.4L266.8 246.05C266.4 247.15 264.9 247.15 264.6 246.05L256.6 223.95C256.2 222.95 254.8 222.85 254.4 223.85L245 246.15C244.9 246.45 244.9 246.75 245 247.05L262.8 295.45C263 295.95 263.4 296.25 263.9 296.25H267.6C268.1 296.25 268.5 295.95 268.7 295.45L298 216.05C298.4 214.95 299.9 215.05 300.2 216.05L327.1 295.45C327.3 295.95 327.7 296.25 328.2 296.25H332.1C332.6 296.25 333 295.95 333.2 295.45L383.7 161.75C384.1 160.65 383.3 159.55 382.2 159.55H365.2C364.7 159.65 364.1 160.05 363.8 160.65ZM246.8 196.45L246.6 196.55H239.8L232.8 212.55C232.7 212.85 232.7 213.15 232.8 213.45L241.8 238.25C242.2 239.25 243.6 239.35 244 238.35L253.4 215.95C253.5 215.65 253.5 215.35 253.4 215.05L246.8 196.45ZM232.5 159.65H215.5C214.4 159.65 213.6 160.75 214 161.85L229.9 206.15C230.3 207.15 231.7 207.25 232.1 206.25L235 199.35L237.3 193.95L237.9 192.55V192.35H243.4C244.2 192.35 244.8 191.55 244.5 190.75L234.1 160.85C233.8 160.05 233.2 159.65 232.5 159.65Z" fill="#EF990F"/>
<path d="M111.066 626.729H104.099L93.8647 581.908H101.078L108.291 617.913L108.476 620.009L109.154 617.975L125.184 581.908H132.151L111.066 626.729ZM144.419 581.908L138.932 626.729H132.397L137.884 581.908H144.419ZM151.092 599.479L151.647 594.855H173.657L173.348 597.568L156.764 618.961C156.435 619.331 156.147 619.701 155.901 620.071C155.654 620.441 155.387 620.79 155.099 621.119L154.051 622.167L155.407 621.982H170.636L170.081 626.729H145.851L146.16 624.017L164.532 600.342L165.58 599.294L164.285 599.479H151.092ZM199.981 599.849C199.077 599.603 198.234 599.438 197.453 599.356C196.672 599.233 195.891 599.171 195.11 599.171C192.11 599.171 189.582 600.24 187.527 602.377C185.513 604.473 184.28 607.432 183.828 611.255C183.623 612.776 183.582 614.214 183.705 615.57C183.828 616.927 184.116 618.098 184.568 619.085C185.061 620.071 185.739 620.831 186.603 621.366C187.507 621.9 188.616 622.064 189.932 621.859C191.781 621.612 193.364 622.475 194.679 624.448C193.569 625.188 192.439 625.784 191.288 626.236C190.137 626.688 189.089 626.956 188.144 627.038C186.294 627.284 184.609 627.038 183.088 626.298C181.568 625.517 180.293 624.407 179.266 622.969C178.279 621.53 177.56 619.804 177.108 617.79C176.656 615.735 176.574 613.556 176.861 611.255C177.149 608.748 177.827 606.467 178.896 604.411C179.965 602.315 181.321 600.507 182.965 598.986C184.609 597.465 186.5 596.294 188.637 595.472C190.815 594.609 193.158 594.177 195.665 594.177C197.392 594.177 199.097 594.321 200.782 594.609C202.509 594.896 204.523 595.41 206.824 596.15L204.358 615.57C204.071 617.913 203.886 619.948 203.803 621.674C203.721 623.4 203.783 624.983 203.988 626.421L199.118 626.729C198.666 626.318 198.214 625.558 197.762 624.448C197.351 623.298 197.248 621.941 197.453 620.379L199.981 599.849ZM255.067 582.525H262.342L266.966 617.297L267.213 620.441L268.076 617.42L281.331 581.908H287.866L270.172 626.729H262.774L257.903 592.389L257.657 589.8L256.855 592.266L243.662 626.729H236.017L229.297 581.908H235.955L240.517 617.297L240.641 620.441L241.689 617.297L255.067 582.525ZM292.805 610.762C292.599 612.488 292.599 614.07 292.805 615.509C293.01 616.906 293.4 618.119 293.976 619.146C294.592 620.174 295.373 620.975 296.319 621.551C297.305 622.126 298.456 622.414 299.771 622.414C301.169 622.414 302.422 622.106 303.532 621.489C304.683 620.873 305.669 620.03 306.491 618.961C307.313 617.893 307.971 616.66 308.464 615.262C308.957 613.865 309.307 612.365 309.512 610.762C309.964 606.98 309.512 604.103 308.156 602.13C306.841 600.157 304.991 599.171 302.607 599.171C301.415 599.171 300.285 599.418 299.216 599.911C298.148 600.404 297.161 601.144 296.257 602.13C295.394 603.117 294.654 604.329 294.038 605.768C293.462 607.206 293.051 608.871 292.805 610.762ZM285.838 610.762C286.208 607.926 286.968 605.48 288.119 603.425C289.311 601.329 290.708 599.603 292.311 598.246C293.955 596.849 295.723 595.821 297.613 595.164C299.545 594.506 301.415 594.177 303.224 594.177C305.608 594.177 307.683 594.609 309.451 595.472C311.259 596.294 312.739 597.445 313.89 598.924C315.04 600.404 315.842 602.171 316.294 604.226C316.746 606.24 316.828 608.419 316.541 610.762C316.212 613.433 315.492 615.797 314.383 617.852C313.314 619.907 311.978 621.653 310.375 623.092C308.772 624.489 307.005 625.558 305.073 626.298C303.142 627.038 301.169 627.408 299.155 627.408C297.058 627.408 295.127 627.058 293.359 626.36C291.592 625.62 290.092 624.551 288.859 623.154C287.626 621.715 286.721 619.968 286.146 617.913C285.612 615.817 285.509 613.433 285.838 610.762ZM324.683 595.164L329.677 594.855C330.17 595.431 330.499 596.129 330.664 596.952C330.869 597.774 331.013 598.678 331.095 599.664L330.972 600.897L331.65 599.664C332.678 598.102 333.972 596.828 335.534 595.842C337.096 594.855 338.658 594.362 340.22 594.362C341.206 594.362 342.295 594.547 343.487 594.917L342.008 600.342C340.734 600.055 339.706 599.911 338.925 599.911C337.939 599.911 336.952 600.137 335.966 600.589C335.02 601 334.137 601.637 333.315 602.5C332.534 603.363 331.835 604.453 331.219 605.768C330.643 607.042 330.253 608.563 330.047 610.33L328.074 626.729H321.847L324.375 605.768C324.581 604 324.725 602.192 324.807 600.342C324.93 598.493 324.889 596.767 324.683 595.164ZM376.718 595.287L365.559 606.014L375.115 626.729H367.717L362.106 613.104L360.997 610.33L355.818 615.509C355.571 614.029 355.674 612.426 356.126 610.7C356.619 608.974 357.503 607.391 358.777 605.953C359.229 605.418 359.681 604.925 360.133 604.473C360.586 603.98 361.038 603.487 361.49 602.993L369.443 594.855L376.718 595.287ZM357.051 580.429L351.379 626.729H344.844L350.577 579.997L357.051 580.429ZM412.196 581.908H418.792L429.458 626.729H422.307L414.538 591.403L414.354 589.492L413.614 591.464L404.921 610.145L404.058 611.378L404.797 611.255H412.072C412.853 611.255 413.511 611.399 414.045 611.686C414.621 611.974 415.093 612.365 415.463 612.858C415.874 613.31 416.203 613.844 416.45 614.461C416.696 615.036 416.881 615.632 417.005 616.249H402.085L397.276 626.729H390.617L412.196 581.908ZM433.946 611.255C434.234 608.748 434.912 606.467 435.98 604.411C437.049 602.315 438.405 600.507 440.049 598.986C441.694 597.465 443.584 596.294 445.721 595.472C447.859 594.609 450.181 594.177 452.688 594.177C454.414 594.177 456.141 594.321 457.867 594.609C459.593 594.896 461.607 595.41 463.909 596.15L460.21 626.729C459.881 629.196 459.223 631.374 458.237 633.265C457.291 635.196 456.058 636.82 454.538 638.135C453.058 639.45 451.352 640.437 449.421 641.094C447.489 641.793 445.393 642.143 443.132 642.143C441.529 642.143 439.782 641.978 437.892 641.649C436.001 641.32 434.049 640.622 432.035 639.553L434.316 634.929C436.083 635.751 437.686 636.327 439.125 636.655C440.563 637.025 441.94 637.21 443.255 637.21C444.53 637.21 445.742 637.005 446.893 636.594C448.085 636.224 449.133 635.628 450.037 634.806C450.982 633.984 451.763 632.956 452.38 631.723C453.038 630.531 453.469 629.093 453.675 627.408L457.065 599.849C456.161 599.603 455.319 599.438 454.538 599.356C453.757 599.233 452.976 599.171 452.195 599.171C449.195 599.171 446.667 600.24 444.612 602.377C442.598 604.473 441.365 607.432 440.913 611.255C440.707 612.776 440.666 614.235 440.789 615.632C440.913 616.988 441.221 618.18 441.714 619.208C442.207 620.194 442.885 620.955 443.749 621.489C444.653 621.982 445.763 622.126 447.078 621.921C448.064 621.838 448.927 622.023 449.667 622.475C450.448 622.928 451.167 623.626 451.825 624.572C450.715 625.27 449.585 625.846 448.434 626.298C447.283 626.75 446.235 627.038 445.29 627.161C443.44 627.367 441.755 627.099 440.234 626.36C438.714 625.579 437.44 624.469 436.412 623.03C435.384 621.551 434.645 619.804 434.193 617.79C433.74 615.735 433.658 613.556 433.946 611.255ZM483.412 607.186H490.563C490.851 606.076 490.913 605.028 490.748 604.042C490.625 603.055 490.337 602.192 489.885 601.452C489.433 600.712 488.816 600.137 488.036 599.726C487.296 599.274 486.433 599.048 485.446 599.048C484.254 599.048 483.124 599.294 482.055 599.788C480.987 600.281 480.021 601 479.158 601.945C478.294 602.891 477.555 604.083 476.938 605.521C476.363 606.919 475.952 608.542 475.705 610.392C475.5 612.2 475.541 613.844 475.828 615.324C476.116 616.804 476.609 618.078 477.308 619.146C478.048 620.174 478.952 620.975 480.021 621.551C481.13 622.126 482.364 622.414 483.72 622.414C485.158 622.414 486.535 622.27 487.851 621.982C489.166 621.653 490.789 621.057 492.721 620.194L493.892 624.695C491.673 625.764 489.597 626.483 487.666 626.853C485.734 627.223 483.966 627.408 482.364 627.408C479.939 627.408 477.822 626.956 476.013 626.051C474.246 625.147 472.807 623.935 471.698 622.414C470.588 620.852 469.807 619.044 469.355 616.988C468.944 614.933 468.882 612.755 469.17 610.453C469.458 607.946 470.095 605.686 471.081 603.672C472.068 601.658 473.321 599.952 474.842 598.554C476.363 597.157 478.11 596.088 480.082 595.349C482.096 594.568 484.254 594.177 486.556 594.177C488.693 594.177 490.563 594.65 492.166 595.595C493.769 596.541 494.982 597.815 495.804 599.418C496.667 600.979 497.098 602.808 497.098 604.905C497.098 607.001 496.585 609.22 495.557 611.563H477.801C478.377 610.33 479.117 609.302 480.021 608.48C480.925 607.617 482.055 607.186 483.412 607.186ZM521.845 626.729L524.619 603.733C524.825 602.418 524.681 601.349 524.188 600.527C523.694 599.664 522.852 599.233 521.66 599.233C521.249 599.233 520.838 599.274 520.427 599.356C520.016 599.438 519.584 599.52 519.132 599.603C518.721 599.685 518.29 599.746 517.838 599.788C517.427 599.829 517.016 599.808 516.605 599.726C515.988 599.644 515.433 599.377 514.94 598.924C514.488 598.472 514.056 597.938 513.645 597.321C515.947 596.088 517.858 595.266 519.379 594.855C520.941 594.403 522.318 594.177 523.51 594.177C524.66 594.177 525.75 594.362 526.777 594.732C527.846 595.061 528.75 595.616 529.49 596.397C530.23 597.136 530.764 598.143 531.093 599.418C531.463 600.692 531.545 602.254 531.339 604.103L528.565 626.729H521.845ZM504.582 595.164L509.884 594.855C510.748 595.965 511.261 597.075 511.426 598.185C511.59 599.253 511.59 600.404 511.426 601.637L508.405 626.729H501.746L504.644 602.932C504.891 600.548 504.87 597.959 504.582 595.164ZM550.641 627.408C548.545 627.408 546.613 627.058 544.846 626.36C543.079 625.661 541.578 624.613 540.345 623.215C539.112 621.818 538.208 620.092 537.633 618.037C537.098 615.94 536.996 613.515 537.324 610.762C537.653 608.049 538.352 605.665 539.421 603.61C540.53 601.555 541.866 599.829 543.428 598.431C545.031 597.034 546.798 595.986 548.73 595.287C550.662 594.547 552.655 594.177 554.71 594.177C555.82 594.177 557.012 594.28 558.286 594.485C559.601 594.691 560.855 595.02 562.047 595.472L559.889 600.034C558.82 599.705 557.793 599.479 556.806 599.356C555.82 599.233 554.916 599.171 554.094 599.171C552.943 599.171 551.833 599.418 550.765 599.911C549.696 600.404 548.71 601.144 547.805 602.13C546.942 603.076 546.202 604.268 545.586 605.706C544.969 607.145 544.538 608.83 544.291 610.762C543.839 614.666 544.291 617.584 545.647 619.516C547.045 621.448 548.915 622.414 551.258 622.414C552.121 622.414 553.107 622.291 554.217 622.044C555.327 621.756 556.622 621.304 558.101 620.688L559.211 625.25C557.444 626.072 555.82 626.627 554.34 626.914C552.861 627.243 551.628 627.408 550.641 627.408ZM566.496 636.964C567.647 636.964 568.654 636.655 569.517 636.039C570.422 635.422 571.244 634.559 571.984 633.45C572.764 632.34 573.504 631.025 574.203 629.504C574.943 627.983 575.744 626.298 576.607 624.448L589.678 594.855L596.274 595.287L581.355 626.051C580.204 628.353 579.115 630.47 578.087 632.401C577.06 634.333 575.97 635.998 574.82 637.395C573.669 638.834 572.374 639.944 570.935 640.725C569.538 641.547 567.853 641.958 565.88 641.958C564.113 641.875 562.366 641.526 560.64 640.909L562.797 636.409C564.071 636.779 565.305 636.964 566.496 636.964ZM572.045 594.855C572.703 598.226 573.381 601.617 574.08 605.028C574.82 608.439 575.395 611.81 575.806 615.139C575.929 616.166 575.929 617.215 575.806 618.283C575.683 619.352 575.477 620.379 575.189 621.366C574.902 622.311 574.532 623.195 574.08 624.017C573.669 624.839 573.217 625.517 572.723 626.051L565.078 594.855H572.045Z" fill="#8B244F"/>
<path opacity="0.5" d="M0 652.35C89 658.35 652.9 699.65 634.9 569.25C630.2 542.25 608.2 520.55 589 502.45C608.6 520.35 630.9 541.95 636 569.05C654.5 703.25 91.4 661.05 0 652.35Z" fill="#8B244F"/>
</svg>
